<svg id="visual" viewBox="0 0 900 600" width="900" height="600" xmlns="http://www.w3.org/2000/svg" xmlns:xlink="http://www.w3.org/1999/xlink" version="1.1"><rect x="0" y="0" width="900" height="600" fill="#140021"></rect><path d="M479 0L410 0L410 86L410 86L410 171L512 171L512 257L350 257L350 343L369 343L369 429L449 429L449 514L325 514L325 600L0 600L0 514L0 514L0 429L0 429L0 343L0 343L0 257L0 257L0 171L0 171L0 86L0 86L0 0L0 0Z" fill="#9900ff"></path><path d="M290 0L336 0L336 86L284 86L284 171L376 171L376 257L297 257L297 343L320 343L320 429L363 429L363 514L254 514L254 600L0 600L0 514L0 514L0 429L0 429L0 343L0 343L0 257L0 257L0 171L0 171L0 86L0 86L0 0L0 0Z" fill="#7700c6"></path><path d="M98 0L121 0L121 86L211 86L211 171L205 171L205 257L118 257L118 343L182 343L182 429L152 429L152 514L182 514L182 600L0 600L0 514L0 514L0 429L0 429L0 343L0 343L0 257L0 257L0 171L0 171L0 86L0 86L0 0L0 0Z" fill="#560090"></path></svg>